:FULLY-SPECIFIED
:FORCE-ALL-JOINTS-BE-3DOF
:DEGREES
238
root 5.44835 15.6185 -25.8679 10.244 20.5898 -5.24747
lfemur -36.32 31.7424 -3.27498
ltibia 51.5217 -0 0
lfoot -14.1327 3.31394 0.0571663
ltoes -4.12356 0 0
rfemur -23.3024 -15.642 4.2051
rtibia 43.4294 -0 0
rfoot -22.2562 1.55501 -1.43495
rtoes 46.0261 -0 0
lowerback 1.51661 -2.04713 1.59567
upperback -0.567811 -2.6684 1.9697
thorax -1.40182 -1.33734 1.19912
lowerneck -11.541 -2.08602 0.312955
upperneck 1.19794 -2.83118 0.449918
head 2.39623 -1.39226 -0.0656661
lclavicle 8.60282e-15 -1.26782e-14 1.2048e-30
lhumerus -53.3138 -37.7888 120.295
lradius 60.8113 -0 0
lwrist 19.0062 0 0
lhand 12.185 15.2508 0.0332529
lfingers 7.12502 -0 0
lthumb 37.1915 41.23 0.0197493
rclavicle 8.60282e-15 -1.26782e-14 1.2048e-30
rhumerus -35.4953 -2.13922 -69.2577
rradius 95.8594 -0 0
rwrist -16.5124 0 0
rhand 34.4428 -23.5725 -2.46232
rfingers 7.12502 -0 0
rthumb 56.2369 -30.2838 0.114249
239
root 5.57794 15.6618 -25.855 10.1129 22.6756 -4.93008
lfemur -36.3128 30.9378 -4.38528
ltibia 50.9193 -0 0
lfoot -14.3018 2.40722 0.0690831
ltoes 0.243045 -0 0
rfemur -22.7932 -14.1365 3.89358
rtibia 44.7772 -0 0
rfoot -19.213 0.29943 -1.73808
rtoes 42.1893 -0 0
lowerback 1.52384 -2.08419 1.39412
upperback -0.581474 -2.72049 2.0342
thorax -1.40509 -1.36113 1.38006
lowerneck -11.4155 -2.52471 0.14384
upperneck 1.29703 -3.39229 0.47427
head 2.41386 -1.6724 -0.0588398
lclavicle 5.98933e-15 -1.14412e-14 1.45566e-30
lhumerus -53.1473 -37.4903 120.199
lradius 60.8555 -0 0
lwrist 19.0824 0 0
lhand 11.8017 15.0181 0.0401784
lfingers 7.12502 -0 0
lthumb 36.8281 41.0842 0.0238627
rclavicle 5.98933e-15 -1.14412e-14 1.45566e-30
rhumerus -36.0261 -2.47981 -69.0247
rradius 91.6427 -0 0
rwrist -11.9289 0 0
rhand 30.5109 -21.9141 -2.98774
rfingers 7.12502 -0 0
rthumb 52.6368 -30.3682 0.138448
240
root 5.71718 15.7082 -25.8411 9.98391 24.9171 -4.58922
lfemur -36.2851 30.0737 -5.56807
ltibia 50.2721 -0 0
lfoot -14.4837 1.43296 0.0789035
ltoes 4.93425 -0 0
rfemur -22.2591 -12.5162 3.57633
rtibia 46.2252 -0 0
rfoot -15.9366 -1.06556 -1.98891
rtoes 38.0673 -0 0
lowerback 1.53175 -2.12398 1.17756
upperback -0.596218 -2.77644 2.10352
thorax -1.4087 -1.38668 1.57446
lowerneck -11.2792 -2.99558 -0.0389801
upperneck 1.40329 -3.99517 0.499365
head 2.43276 -1.97339 -0.0516008
lclavicle 3.18156e-15 -1.01122e-14 1.66231e-30
lhumerus -52.9699 -37.1694 120.098
lradius 60.903 -0 0
lwrist 19.1642 0 0
lhand 11.3899 14.768 0.0458844
lfingers 7.12502 -0 0
lthumb 36.4377 40.9275 0.0272512
rclavicle 3.18156e-15 -1.01122e-14 1.66231e-30
rhumerus -36.5981 -2.84336 -68.7708
rradius 87.1125 -0 0
rwrist -7.00462 0 0
rhand 26.2696 -20.0959 -3.42393
rfingers 7.12502 -0 0
rthumb 48.769 -30.4603 0.158489
241
root 5.86329 15.757 -25.8265 9.86195 27.2701 -4.23052
lfemur -36.2343 29.1676 -6.79897
ltibia 49.5929 -0 0
lfoot -14.6746 0.410609 0.0858823
ltoes 9.85731 -0 0
rfemur -21.7117 -10.8129 3.26193
rtibia 47.7448 -0 0
rfoot -12.4923 -2.51116 -2.16776
rtoes 33.7417 -0 0
lowerback 1.54022 -2.1657 0.950294
upperback -0.611766 -2.83514 2.17628
thorax -1.41257 -1.41348 1.77847
lowerneck -11.1345 -3.4893 -0.232154
upperneck 1.51461 -4.62791 0.524517
head 2.45257 -2.28925 -0.0441093
lclavicle 2.35023e-16 -8.71754e-15 1.80913e-30
lhumerus -52.7853 -36.8323 119.994
lradius 60.9528 -0 0
lwrist 19.2501 0 0
lhand 10.9576 14.5055 0.0499388
lfingers 7.12502 -0 0
lthumb 36.028 40.763 0.0296589
rclavicle 2.35023e-16 -8.71754e-15 1.80913e-30
rhumerus -37.2002 -3.22207 -68.5004
rradius 82.3584 -0 0
rwrist -1.83698 0 0
rhand 21.8044 -18.1579 -3.73574
rfingers 7.12502 -0 0
rthumb 44.71 -30.5582 0.172788
